PathFileType	4	(X/Y/Z)	s08c0001.trc
DataRate	CameraRate	NumFrames	NumMarkers	Units	OrigDataRate	OrigDataStartFrame	OrigNumFrames
200	200	5	49	mm	200	0	2000
Frame#	Time	racr			lacr			c7			jug			rlel			rdr			llel			ldr			s2			lic			ric			lasi			rasi			rpsi			lpsi			rgt			lgt			rth1			rth2			rth3			rth4			rlfc			rmfc			rsh1			rsh2			rsh3			rsh4			rlmal			rmmal			rcal			rtoe			rmt5			rmt1			lth1			lth2			lth4			lth3			llfc			lmfc			llmal			lmmal			lcal			lmt1			lmt5			lsh1			lsh2			lsh3			lsh4			ltoe			
		X1	Y1	Z1	X2	Y2	Z2	X3	Y3	Z3	X4	Y4	Z4	X5	Y5	Z5	X6	Y6	Z6	X7	Y7	Z7	X8	Y8	Z8	X9	Y9	Z9	X10	Y10	Z10	X11	Y11	Z11	X12	Y12	Z12	X13	Y13	Z13	X14	Y14	Z14	X15	Y15	Z15	X16	Y16	Z16	X17	Y17	Z17	X18	Y18	Z18	X19	Y19	Z19	X20	Y20	Z20	X21	Y21	Z21	X22	Y22	Z22	X23	Y23	Z23	X24	Y24	Z24	X25	Y25	Z25	X26	Y26	Z26	X27	Y27	Z27	X28	Y28	Z28	X29	Y29	Z29	X30	Y30	Z30	X31	Y31	Z31	X32	Y32	Z32	X33	Y33	Z33	X34	Y34	Z34	X35	Y35	Z35	X36	Y36	Z36	X37	Y37	Z37	X38	Y38	Z38	X39	Y39	Z39	X40	Y40	Z40	X41	Y41	Z41	X42	Y42	Z42	X43	Y43	Z43	X44	Y44	Z44	X45	Y45	Z45	X46	Y46	Z46	X47	Y47	Z47	X48	Y48	Z48	X49	Y49	Z49	
0	0.0000	410.338715	1527.099731	597.378113	396.409332	1545.653442	202.008698	350.549438	1583.418091	400.262848	481.536682	1487.823364	396.225708	370.182526	1233.420898	681.838501	444.634460	956.454956	790.110657	373.762177	1246.987549	97.770821	430.951599	974.563782	-6.745165	318.636505	1027.664917	402.188812	463.220673	1095.076050	236.903931	469.281464	1099.852905	553.366028	513.430908	1037.483643	267.506256	524.547058	1034.369995	517.429077	339.993683	1067.135864	449.608887	338.501556	1075.313965	350.606628	414.539062	954.929749	574.941345	418.545959	943.959106	209.523956	428.297058	804.152832	591.471375	450.464233	718.781494	587.376404	487.942780	720.017883	579.630493	428.469177	635.085632	577.373108	433.508240	512.254517	558.121704	417.823029	499.791443	454.825104	394.909607	387.185822	593.161804	419.251740	301.114197	575.308594	396.746094	217.966125	569.078613	445.027435	306.253693	545.054199	392.078064	97.979759	555.628845	407.020721	122.123192	469.861725	321.310577	65.288719	507.897247	612.265808	78.980064	510.499908	535.580383	47.626629	577.263367	539.123474	47.377705	464.193695	435.953949	814.696228	187.996902	457.284424	729.308411	190.307983	492.864044	731.587769	200.591888	430.320740	645.045105	195.103302	426.592560	519.966431	216.779373	431.443939	496.668060	314.036804	382.656738	106.148430	221.195099	413.390686	127.286942	301.307526	325.014069	73.948296	264.424286	542.255188	46.994400	295.838074	529.392151	42.369186	181.483139	406.031738	393.497406	189.848083	420.549042	310.234619	207.414627	392.889984	226.053177	207.272842	441.851929	313.200104	239.682983	610.486877	81.763710	243.139450	
1	0.0050	410.405029	1527.124390	597.319702	396.509644	1545.619629	201.952682	350.662506	1583.410645	400.195343	481.611938	1487.813721	396.185944	370.232513	1233.436890	681.790649	444.631256	956.447449	790.097717	373.887543	1246.968872	97.746826	431.057892	974.518677	-6.730854	318.685852	1027.640625	402.158173	463.285248	1095.067871	236.879288	469.361877	1099.856323	553.317383	513.481018	1037.472900	267.444946	524.640198	1034.354858	517.367065	340.074768	1067.153198	449.611908	338.580383	1075.312134	350.606567	414.611511	954.942444	574.915039	418.580719	943.960205	209.506317	428.391296	804.162170	591.435242	450.522369	718.787598	587.343445	487.998199	720.011108	579.598999	428.550659	635.103821	577.374451	433.567841	512.254028	558.092285	417.890717	499.791748	454.821930	394.938629	387.188324	593.151001	419.287872	301.111298	575.287354	396.752319	217.956757	569.068359	445.047974	306.238586	545.013733	392.055939	97.973442	555.629700	407.033081	122.112755	469.872467	321.310211	65.289619	507.896667	612.282654	78.989182	510.495789	535.616272	47.634602	577.260010	539.121155	47.380112	464.192810	435.984528	814.673340	187.968613	457.312561	729.300903	190.297806	492.905640	731.568604	200.544540	430.327301	645.031006	195.080826	426.572418	519.964172	216.737030	431.438995	496.659943	314.021606	382.657501	106.131836	221.192139	413.396332	127.278214	301.300873	325.009491	73.946693	264.412415	542.251038	46.984535	295.830566	529.431274	42.382442	181.494751	406.011475	393.500366	189.822556	420.521912	310.231018	207.378662	392.859039	226.035019	207.261398	441.845856	313.200439	239.673874	610.476624	81.772545	243.124695	
2	0.0100	410.502106	1527.157959	597.278625	396.565552	1545.586792	201.920456	350.751923	1583.412476	400.145905	481.697388	1487.819580	396.150208	370.283997	1233.455444	681.743408	444.608368	956.459534	790.066772	373.984497	1246.963257	97.733925	431.177887	974.497803	-6.722145	318.767822	1027.636597	402.150543	463.346832	1095.059937	236.840256	469.442505	1099.853638	553.261658	513.535339	1037.468628	267.434174	524.722900	1034.348267	517.330017	340.117157	1067.183350	449.682678	338.654724	1075.311157	350.587738	414.709381	954.941833	574.888733	418.622040	943.943481	209.484421	428.471069	804.167358	591.403320	450.585327	718.768982	587.326477	488.084137	720.019348	579.560913	428.640686	635.127930	577.329102	433.619263	512.257996	558.088745	417.933136	499.780151	454.791382	394.979126	387.192047	593.133972	419.316559	301.112946	575.277832	396.767700	217.954163	569.066589	445.086761	306.236694	545.013428	392.059204	97.981667	555.635254	407.042633	122.116859	469.862671	321.329315	65.267975	507.903076	612.282837	78.984276	510.513153	535.592529	47.640743	577.255188	539.120789	47.399311	464.181274	436.011230	814.680969	187.963577	457.315216	729.290405	190.274734	492.904755	731.591553	200.527710	430.331451	645.027405	195.071854	426.534668	519.962952	216.709076	431.449371	496.661713	313.998840	382.632416	106.126930	221.201797	413.390442	127.285667	301.301483	325.018311	73.938057	264.421692	542.249084	46.985771	295.831787	529.442139	42.365311	181.480682	405.974396	393.509430	189.807739	420.490814	310.229095	207.368042	392.852875	226.012314	207.227921	441.828888	313.201019	239.635620	610.482483	81.759239	243.126495	
3	0.0150	410.407410	1527.350220	597.167908	396.649963	1545.575073	201.858932	350.948547	1583.755005	399.819672	480.796539	1488.548828	394.884521	371.230133	1233.507080	681.898865	444.598480	956.479980	790.058289	374.099976	1246.959595	97.718872	431.104889	974.910828	-6.858586	318.835205	1027.645874	402.152283	457.891327	1095.455811	235.343582	469.710632	1099.760742	553.155823	513.589600	1037.457764	267.394775	524.782837	1034.337158	517.298462	340.200439	1067.191528	449.671265	338.733551	1075.309326	350.587646	414.789124	954.950256	574.863525	417.733368	944.528503	208.133377	428.536377	804.163147	591.385498	450.245453	719.009399	587.645386	488.176361	719.902893	579.498596	428.689087	635.116760	577.312500	433.661591	512.261475	558.069275	417.970551	499.792023	454.776489	394.997742	387.186981	593.124878	419.325104	301.117126	575.263916	396.779022	217.971924	569.062439	440.082733	304.717499	542.428284	392.616241	97.534203	555.480957	407.473633	121.990685	469.958252	321.325195	65.282013	507.905518	612.304321	78.972450	510.505829	535.606079	47.617149	577.257446	534.626282	47.863495	462.409576	436.035553	814.683289	187.936646	456.339111	730.223206	191.838882	493.045166	731.113159	200.395752	430.338318	645.016235	195.056458	423.846527	519.722107	215.047668	431.420990	496.653625	313.982361	382.609924	106.142349	221.198608	409.748199	127.236488	299.557739	325.000000	73.954155	264.426422	542.244995	46.992012	295.831146	529.442139	42.365311	181.480682	405.938812	393.523499	189.794922	420.459198	310.212646	207.340073	393.033325	225.681091	207.066803	441.791290	313.202332	239.618561	610.485168	81.740891	243.128433	
4	0.0200	410.365051	1528.182251	596.235413	396.886108	1547.308594	199.129761	351.109619	1583.766113	399.407654	481.360504	1489.420532	393.602234	369.981232	1233.481567	681.399353	444.844635	956.945618	789.239502	374.472565	1247.640137	96.220093	431.333801	974.858154	-6.547625	319.074280	1027.875488	402.760986	455.724640	1096.731201	234.807190	469.639130	1100.402222	552.286987	513.239868	1037.944458	267.928162	524.339417	1034.966309	515.993408	340.156799	1067.243408	449.658600	338.887634	1075.619019	350.623596	414.763306	955.234741	574.947083	417.701843	945.148438	207.367767	428.355255	804.561707	591.412720	450.189423	719.046875	587.656311	488.245117	719.885193	579.451843	428.350739	635.535950	577.259094	433.620453	512.549927	558.208374	415.951935	501.476501	452.416168	393.493195	387.783630	591.891113	414.400177	301.816986	572.354492	393.873016	218.763168	567.506775	438.044373	305.862671	541.132141	392.461212	97.673302	555.542908	407.149323	122.054878	469.774841	321.294922	65.164558	507.873718	608.960022	81.837883	505.783630	535.470764	47.775772	577.250366	530.702454	49.375141	460.339478	435.714813	814.953796	188.517853	456.353455	730.214539	191.802979	492.668152	731.245239	200.690399	430.023743	645.521851	195.252686	424.096893	521.645325	213.817871	426.888977	497.613983	311.049530	381.919067	106.572777	221.328766	407.872467	127.982368	298.044983	324.938690	73.865311	264.402283	537.072815	49.213558	294.283966	528.955444	42.774632	181.370621	405.592194	393.805450	189.818817	420.136047	310.512695	207.303574	392.564514	225.969269	206.990204	440.639313	314.647247	236.457809	610.592468	81.577805	243.440521	
